#!OML:ASF I:\salsa\salsa 7_09\Patient 1\Session 1\dancermale.ASF
:FULLY-SPECIFIED
:DEGREES
1420
root -1.5062 17.1866 1.09091 545.479 114.432 538.331
lowerback -3.20733 1.10145 2.37263
upperback -1.4342 1.42483 2.92115
thorax 0.308626 0.729871 1.71513
lowerneck -9.51497 -3.78079 -1.26505
upperneck 14.18 -4.44133 -2.73281
head 5.81946 -2.3991 -0.99401
rclavicle -5.52124e-014 -8.74653e-015
rhumerus -9.57539 26.4991 -106.472
rradius 73.5622
rwrist -15.9244
rhand -23.7963 -7.99987
rfingers 7.12502
rthumb 2.67412 -37.9628
lclavicle -5.52124e-014 -8.74653e-015
lhumerus 73.8413 -18.898 35.9826
lradius 62.3916
lwrist -5.1091
lhand -24.0493 32.9651
lfingers 7.12502
lthumb 2.42975 422.931
rfemur -37.5672 -12.2317 19.6157
rtibia 59.6131
rfoot -3.10487 -20.6069
rtoes 14.3811
lfemur -15.7005 -1.46741 -21.3564
ltibia 39.5023
lfoot -21.0829 7.83397
ltoes -6.73093
1421
root -1.38007 17.1643 1.02488 545.727 115.089 538.783
lowerback -3.26276 0.57745 1.87138
upperback -1.32218 0.731888 3.07461
thorax 0.455162 0.385229 2.13184
lowerneck -9.51725 -3.36414 -1.20975
upperneck 14.3878 -3.87233 -2.77257
head 5.88817 -2.1234 -0.974768
rclavicle -9.0944e-015 -3.10104e-014
rhumerus -11.5145 27.4157 -104.916
rradius 76.9168
rwrist -16.4846
rhand -21.2651 -8.64157
rfingers 7.12502
rthumb 5.11834 -38.5598
lclavicle -9.0944e-015 -3.10104e-014
lhumerus 73.581 -18.3132 36.7778
lradius 61.009
lwrist -5.40626
lhand -23.2619 33.7746
lfingers 7.12502
lthumb 3.19018 423.731
rfemur -38.759 -12.8901 20.3136
rtibia 60.8852
rfoot -4.45761 -22.2772
rtoes 14.7401
lfemur -14.6885 -0.833095 -22.0051
ltibia 38.6906
lfoot -21.6278 8.09614
ltoes -7.2735
1422
root -1.24893 17.1419 0.972711 546.034 115.856 539.101
lowerback -3.43448 0.0398848 1.35713
upperback -1.40245 0.0268048 3.22892
thorax 0.485094 0.0345613 2.55495
lowerneck -9.28112 -2.88723 -1.44029
upperneck 14.6908 -3.22222 -2.5181
head 5.95784 -1.80022 -0.806387
rclavicle 1.97294e-014 -3.18055e-015
rhumerus -13.6184 28.2285 -103.33
rradius 80.3714
rwrist -17.407
rhand -18.4777 -9.42391
rfingers 7.12502
rthumb 7.80929 -39.2597
lclavicle 1.97294e-014 -3.18055e-015
lhumerus 73.1366 -17.8297 37.4523
lradius 59.4479
lwrist -6.0038
lhand -22.4529 34.719
lfingers 7.12502
lthumb 3.97138 424.662
rfemur -39.7408 -13.3671 21.3731
rtibia 61.1563
rfoot -5.75626 -20.6115
rtoes 13.6399
lfemur -13.9152 -0.288058 -22.5481
ltibia 37.9837
lfoot -22.0846 8.37349
ltoes -7.49631
1423
root -1.11393 17.1213 0.929786 546.647 116.623 539.605
lowerback -3.82791 -0.569181 0.777369
upperback -1.48074 -0.777138 3.32464
thorax 0.661541 -0.366604 2.94646
lowerneck -9.06639 -2.3172 -1.71195
upperneck 14.9359 -2.44673 -2.23254
head 6.01103 -1.4169 -0.610916
rclavicle -1.68967e-015 -1.74931e-014
rhumerus -15.4064 29.1435 -101.495
rradius 83.8732
rwrist -18.824
rhand -15.358 -10.4619
rfingers 7.12502
rthumb 10.8194 -40.1632
lclavicle -1.68967e-015 -1.74931e-014
lhumerus 72.6224 -17.1538 37.7453
lradius 57.7659
lwrist -6.61148
lhand -22.0514 35.5731
lfingers 7.12502
lthumb 4.35914 425.508
rfemur -40.5492 -13.8146 22.5981
rtibia 60.6696
rfoot -7.16655 -18.7918
rtoes 9.84029
lfemur -13.3737 0.235234 -23.1798
ltibia 37.428
lfoot -22.4946 8.48337
ltoes -6.93544
1424
root -0.973904 17.1081 0.893432 547.446 117.376 540.365
lowerback -4.23745 -1.17089 0.161811
upperback -1.5111 -1.56835 3.30423
thorax 0.911303 -0.764187 3.22912
lowerneck -8.81116 -1.76711 -1.59367
upperneck 15.0036 -1.69836 -2.36699
head 5.98842 -1.05607 -0.612124
rclavicle 1.17134e-013 -4.45278e-014
rhumerus -16.7887 29.7355 -99.3478
rradius 87.4062
rwrist -19.8233
rhand -12.258 -9.7921
rfingers 7.12502
rthumb 13.8084 -39.3138
lclavicle 1.17134e-013 -4.45278e-014
lhumerus 72.1793 -16.4067 37.7705
lradius 56.0544
lwrist -7.01008
lhand -21.6932 36.2375
lfingers 7.12502
lthumb 4.70505 426.165
rfemur -41.0326 -14.4552 23.8421
rtibia 59.6226
rfoot -9.0561 -16.87
rtoes 6.9304
lfemur -12.8144 0.789284 -23.9557
ltibia 36.9004
lfoot -22.6905 8.59887
ltoes -7.29193
1425
root -0.829079 17.1012 0.866642 548.076 118.121 540.973
lowerback -4.59629 -1.71259 -0.377913
upperback -1.57696 -2.27462 3.26653
thorax 1.10239 -1.11944 3.44774
lowerneck -8.52672 -1.27913 -1.44818
upperneck 15.0351 -1.0346 -2.53319
head 5.95036 -0.73636 -0.635289
rclavicle 4.96962e-014 1.51076e-014
rhumerus -18.2029 29.8234 -96.8362
rradius 91.0435
rwrist -20.0251
rhand -7.96192 -10.822
rfingers 7.12502
rthumb 17.9455 -40.014
lclavicle 4.96962e-014 1.51076e-014
lhumerus 71.7895 -15.7888 37.8238
lradius 54.2573
lwrist -7.45882
lhand -21.3384 36.8839
lfingers 7.12502
lthumb 5.04761 426.804
rfemur -41.1996 -15.3517 25.2768
rtibia 58.0719
rfoot -10.1437 -15.1436
rtoes 3.3334
lfemur -12.2717 1.52732 -24.603
ltibia 36.4923
lfoot -22.7653 8.46701
ltoes -7.68128
1426
root -0.681449 17.0983 0.84928 548.438 118.959 541.282
lowerback -5.03252 -2.25709 -0.945023
upperback -1.58589 -2.98204 3.37381
thorax 1.41577 -1.47739 3.8194
lowerneck -8.46764 -0.764528 -1.53428
upperneck 15.2229 -0.307135 -2.58921
head 6.00446 -0.393534 -0.584132
rclavicle -1.21756e-014 -2.78299e-014
rhumerus -19.2596 30.1195 -93.6712
rradius 94.5899
rwrist -20.6727
rhand -4.4314 -11.6392
rfingers 7.12502
rthumb 21.3396 -40.4842
lclavicle -1.21756e-014 -2.78299e-014
lhumerus 71.2371 -14.9584 37.9935
lradius 52.4636
lwrist -7.99788
lhand -21.1561 37.6603
lfingers 7.12502
lthumb 5.2236 427.576
rfemur -41.0314 -16.1871 26.8264
rtibia 56.1031
rfoot -10.4838 -13.328
rtoes -0.943196
lfemur -11.7057 2.42143 -25.0439
ltibia 36.076
lfoot -22.7361 8.0891
ltoes -6.91261
1427
root -0.537227 17.099 0.841835 548.59 120.054 541.315
lowerback -5.63566 -2.69219 -1.43313
upperback -1.46206 -3.54672 3.46865
thorax 1.95718 -1.77024 4.12284
lowerneck -8.60846 -0.27696 -1.52969
upperneck 15.4627 0.37784 -2.65578
head 6.10913 -0.0703771 -0.554691
rclavicle 5.86415e-015 4.69132e-014
rhumerus -19.3244 30.2709 -89.8675
rradius 97.7199
rwrist -21.5318
rhand -1.86172 -12.3222
rfingers 7.12502
rthumb 23.806 -40.8672
lclavicle 5.86415e-015 4.69132e-014
lhumerus 70.7267 -13.8563 37.9758
lradius 50.8807
lwrist -8.32852
lhand -20.9802 38.3898
lfingers 7.12502
lthumb 5.39345 428.301
rfemur -40.5793 -16.6525 28.4349
rtibia 53.8149
rfoot -10.4363 -11.3328
rtoes -6.76941
lfemur -11.12 3.4507 -25.3105
ltibia 35.5568
lfoot -22.4612 7.76496
ltoes -6.4156
1428
root -0.384549 17.1024 0.835425 548.763 120.652 541.396
lowerback -6.33751 -3.07388 -1.27411
upperback -1.30104 -4.06608 3.12674
thorax 2.52211 -2.03682 3.59414
lowerneck -8.61767 0.0185514 -1.28687
upperneck 15.4355 0.705045 -2.45024
head 6.10321 0.116217 -0.504424
rclavicle -3.22528e-014 4.05521e-014
rhumerus -18.8354 29.4477 -85.9827
rradius 100.419
rwrist -22.4087
rhand 0.18166 -13.0626
rfingers 7.12502
rthumb 25.7644 -41.3383
lclavicle -3.22528e-014 4.05521e-014
lhumerus 70.6925 -13.0351 37.58
lradius 49.3692
lwrist -8.53533
lhand -20.7529 38.8479
lfingers 7.12502
lthumb 5.61288 428.754
rfemur -39.7194 -17.6204 29.8838
rtibia 51.107
rfoot -10.1036 -9.54404
rtoes -10.9955
lfemur -10.6084 4.08533 -25.5384
ltibia 35.2567
lfoot -21.8988 7.2422
ltoes -6.81833
